<svg xmlns="http://www.w3.org/2000/svg" viewBox="0 0 64 64" width="64" height="64">
  <!-- Bulb glass -->
  <path d="M32 6 C19 6 11 15 11 26 C11 34 15 40 22 44 L22 50 L42 50 L42 44 C49 40 53 34 53 26 C53 15 45 6 32 6 Z"
        fill="#FFF9C4" stroke="#F9A825" stroke-width="2"/>

  <!-- Brain lobes inside the bulb -->
  <!-- Left hemisphere -->
  <path d="M23 22 C21 18 24 14 28 15 C27 12 31 11 32 14"
        fill="none" stroke="#E91E63" stroke-width="1.5" stroke-linecap="round"/>
  <path d="M23 22 C20 24 21 29 24 30 C22 32 23 36 26 36 C27 38 30 39 32 38"
        fill="none" stroke="#E91E63" stroke-width="1.5" stroke-linecap="round"/>
  <path d="M28 15 C26 17 25 20 23 22"
        fill="none" stroke="#E91E63" stroke-width="1.5" stroke-linecap="round"/>
  <path d="M26 22 C24 25 24 30 26 32"
        fill="none" stroke="#E91E63" stroke-width="1.2" stroke-linecap="round"/>

  <!-- Right hemisphere -->
  <path d="M41 22 C43 18 40 14 36 15 C37 12 33 11 32 14"
        fill="none" stroke="#E91E63" stroke-width="1.5" stroke-linecap="round"/>
  <path d="M41 22 C44 24 43 29 40 30 C42 32 41 36 38 36 C37 38 34 39 32 38"
        fill="none" stroke="#E91E63" stroke-width="1.5" stroke-linecap="round"/>
  <path d="M36 15 C38 17 39 20 41 22"
        fill="none" stroke="#E91E63" stroke-width="1.5" stroke-linecap="round"/>
  <path d="M38 22 C40 25 40 30 38 32"
        fill="none" stroke="#E91E63" stroke-width="1.2" stroke-linecap="round"/>

  <!-- Center divider line -->
  <line x1="32" y1="14" x2="32" y2="38" stroke="#E91E63" stroke-width="1" stroke-dasharray="2,2"/>

  <!-- Bulb base ridges -->
  <rect x="23" y="50" width="18" height="4" rx="1" fill="#BDBDBD" stroke="#9E9E9E" stroke-width="1"/>
  <rect x="24" y="54" width="16" height="4" rx="1" fill="#BDBDBD" stroke="#9E9E9E" stroke-width="1"/>

  <!-- Glow effect -->
  <circle cx="32" cy="26" r="20" fill="#FFF176" opacity="0.15"/>
</svg>
